<svg width="482" height="155" viewBox="0 0 482 155" fill="none" xmlns="http://www.w3.org/2000/svg">
<circle cx="94.6386" cy="77.2739" r="66.2076" transform="rotate(180 94.6386 77.2739)" stroke="white" stroke-width="4.27146"></circle>
<path d="M159.509 87.8169C159.509 95.3159 157.854 100.957 154.637 107.885C151.421 114.813 146.706 121.108 140.763 126.411C134.82 131.714 127.765 135.92 119.999 138.79C112.234 141.659 103.912 143.137 95.5069 143.137C87.1021 143.137 78.7795 141.659 71.0144 138.79C63.2493 135.92 56.1938 131.714 50.2506 126.411C44.3075 121.108 39.5932 114.813 36.3767 107.885C33.1603 100.957 31.5049 95.3159 31.5049 87.8169L95.5069 87.8169L159.509 87.8169Z" fill="white"></path>
<line x1="9.92285" y1="92.3248" x2="179.603" y2="92.3248" stroke="#00C1D4" stroke-width="12.8144"></line>
<path d="M458.001 125.823C451.703 125.823 447.285 122.559 447.007 116.969H450.973C451.251 120.302 453.234 122.559 457.896 122.559C461.897 122.559 463.115 120.823 463.115 118.566C463.115 115.407 460.679 114.955 456.157 113.809C452.26 112.768 447.981 111.518 447.981 106.795C447.981 102.49 451.321 100.024 456.678 100.024C462.349 100.024 466.037 102.906 466.42 107.906H462.454C462.036 104.92 460.332 103.288 456.713 103.288C453.582 103.288 451.982 104.434 451.982 106.587C451.982 109.365 454.591 109.955 457.792 110.754C462.593 111.969 467.116 113.115 467.116 118.358C467.116 122.629 464.228 125.823 458.001 125.823Z" fill="white"></path>
<path d="M428.395 125.337H424.568V100.51H428.395V125.337Z" fill="white"></path>
<path d="M398.248 125.337H394.386V103.809H386.349V100.51H406.285V103.809H398.248V125.337Z" fill="white"></path>
<path d="M352.014 125.337H348.188V100.51H352.571L364.122 119.608H364.191V100.51H368.053V125.337H363.669L352.084 106.24H352.014V125.337Z" fill="white"></path>
<path d="M316.931 125.823C309.486 125.823 304.719 120.372 304.719 112.906C304.719 105.441 309.486 100.024 316.931 100.024C324.376 100.024 329.143 105.441 329.143 112.906C329.143 120.372 324.376 125.823 316.931 125.823ZM316.931 122.525C322.811 122.525 325.142 118.011 325.142 112.906C325.142 107.802 322.811 103.323 316.931 103.323C311.051 103.323 308.72 107.802 308.72 112.906C308.72 118.011 311.051 122.525 316.931 122.525Z" fill="white"></path>
<path d="M271.659 125.337H267.832V100.51H278.199C283.696 100.51 286.654 103.08 286.654 107.663C286.654 110.823 284.74 113.115 281.992 113.74V113.809C287.767 114.886 285.645 124.678 287.002 125.094V125.337H282.896C281.783 124.296 284.149 115.615 278.06 115.615H271.659V125.337ZM271.659 112.316H277.364C280.878 112.316 282.792 110.788 282.792 107.941C282.792 105.267 281.261 103.809 277.434 103.809H271.659V112.316Z" fill="white"></path>
<rect x="232.193" y="100.568" width="17.2376" height="3.30846" fill="#00C1D4"></rect>
<rect x="235.84" y="111.155" width="14.2264" height="3.64641" transform="rotate(90 235.84 111.155)" fill="white"></rect>
<rect x="232.193" y="111.155" width="14.5856" height="3.30846" fill="white"></rect>
<path d="M457.642 36.5058H469.755V42.4698H457.555V48.4338H468.06C468.06 48.4338 468.06 55.0197 468.06 56.4676C468.06 57.9156 462.61 64.5939 461.355 65.9334C461.08 66.2268 459.298 67.78 459.334 67.9172C462.969 70.1274 467.979 72.4357 472.077 73.6763L468.975 79.506C464.194 77.637 459.017 74.7295 454.728 71.9771C450.41 74.8666 440.907 79.506 440.907 79.506L438.198 73.6763C438.198 73.6763 446.925 70.033 450.28 67.7609C449.252 66.9285 448.178 65.9526 447.292 64.9798C446.472 64.0803 441.948 56.8599 441.948 56.8599L447.858 55.8234C449.679 58.9521 451.953 61.8352 454.699 64.1602C455.931 64.0518 461.85 56.0945 462.08 54.3212C460.153 54.3212 440.907 54.522 440.907 54.3212V48.437H451.412V42.4698H440.425V36.5058H451.416V29.1864L457.642 29.1864V36.5058Z" fill="white"></path>
<path d="M340.858 44.1379V50.1108H332.293V63.0664H336.171V60.0429H341.667V68.8798H326.064V50.1108H320.554C320.554 50.1108 320.58 51.7222 320.305 55.1952C320.03 58.6682 318.409 62.5716 315.838 65.6142C315.227 66.3382 312.115 69.3353 310.874 69.9554L306.531 65.8623C310.626 63.8805 312.809 58.6969 313.48 56.4356C313.829 55.2549 314.473 52.2184 314.106 50.1108H307.236V44.1379H340.858Z" fill="white"></path>
<path d="M438.8 38.2536V44.1378H433.793L433.79 52.7145L439.124 50.896V57.1797L433.79 58.6906V79.3079H421.347V73.2642H427.49V60.5212L421.445 62.7613L420.05 56.7898L427.49 54.2383V44.1378H420.862V38.2536H427.49V29.4288H433.793V38.2536H438.8Z" fill="white"></path>
<path d="M293.078 44.1561L304.531 44.3379C304.465 49.8197 304.589 68.5702 304.589 68.5702C304.589 68.5702 308.875 72.2403 309.159 72.2403H343.826V78.3898H307.027L301.291 73.6978L294.776 79.1458L292.259 73.6858C292.259 73.6858 293.43 72.9076 293.964 72.4643C294.546 71.9795 298.249 68.5702 298.249 68.5702V49.8809H293.078V44.1561Z" fill="white"></path>
<path d="M254.715 50.5924V56.2286H260.776V61.6376H254.715V69.512L260.857 67.9237V73.7282L248.738 78.1128V61.6376H243.081C243.081 61.6376 243.081 56.7928 243.081 56.2286H248.576V50.5956H244.213V44.9385H260.534V50.5956L254.715 50.5924Z" fill="white"></path>
<path d="M279.284 50.1849H274.759V64.4203V78.6557H263.768C263.767 78.6557 263.768 73.1129 263.768 72.612H268.617V50.1849C268.045 50.1982 262.798 50.1849 262.798 50.1849V44.4601H279.284L279.281 50.1849H279.284Z" fill="white"></path>
<path d="M234.193 78.9746V57.1854L229.752 60.8435L227.232 55.8427C228.532 54.9529 229.736 53.8143 230.803 52.6534C232.621 50.6761 234.736 47.9811 236.263 45.7805C236.887 44.8843 238.013 43.0409 238.013 43.0409L243.078 45.1485C243.078 45.1485 240.379 49.8881 240.073 50.3252C239.767 50.7624 238.889 51.8464 238.551 52.3425C238.551 52.3425 238.787 52.3581 238.889 52.3441C239.18 52.3441 239.683 52.3441 240.312 52.3441C240.312 62.7502 240.317 78.9746 240.317 78.9746L234.186 78.9683L234.193 78.9746Z" fill="white"></path>
<path d="M337.307 31.7346V37.4594H310.231L310.231 31.7346H337.307Z" fill="white"></path>
<path d="M252.616 34.755H260.857C260.904 35.193 260.857 39.2296 260.857 40.3458C257.276 40.3458 253.693 40.3108 250.112 40.3108C249.767 40.8687 248.205 43.66 247.956 43.6627H242.124C242.744 42.2956 243.3 41.4464 243.86 40.3809C245.736 36.8121 247.428 33.1317 248.563 29.2631L254.308 29.3492C254.447 29.3492 254.401 29.3428 254.725 29.3428C254.725 29.8212 252.82 34.0885 252.609 34.7582L252.616 34.755Z" fill="white"></path>
<path d="M231.874 37.0865C233.488 35.4695 235.625 32.9883 236.851 31.0874C237.084 30.7239 237.831 29.1701 238.067 29.024C240.817 29.5024 242.466 29.9797 243.32 30.1466C243.508 30.1849 243.621 30.2104 243.731 30.3826C240.804 36.5985 235.904 42.014 230.072 45.7231L227.588 40.8977C228.953 39.571 230.534 38.4292 231.877 37.0833L231.874 37.0865Z" fill="white"></path>
<path d="M278.152 32.0538V37.6224H263.445V32.0538C263.445 32.0538 276.766 32.0507 278.152 32.0507V32.0538Z" fill="white"></path>
<path d="M371.63 43.8223C372.183 43.8076 378.743 43.8223 378.743 43.8223V49.6138H371.31L379.873 58.0481L376.398 62.2653L371.63 57.428V79.6302H365.601L365.488 60.8403C365.488 60.8403 363.894 63.4696 362.777 65.0917C361.36 67.1521 358.916 70.2009 358.916 70.2009L355.464 65.8443C355.464 65.8443 362.667 55.3896 365.485 49.6138H357.89C357.89 49.6138 357.89 45.0013 357.89 43.8191H365.485V38.0943L358.524 39.4561L357.738 34.2895L378.011 28.7759L378.51 34.7583L371.627 36.9015V43.8191L371.63 43.8223Z" fill="white"></path>
<path d="M401.529 57.8198L408.81 56.4355V62.2651L401.529 63.7536V79.506H395.387V64.8203L378.739 68.0948V62.0171L395.387 58.9329V29.1896H401.287C401.303 29.1896 401.529 29.4128 401.529 29.4288V57.8198Z" fill="white"></path>
<path d="M382.106 37.5822L381.734 33.365L386.078 33.6131L392.318 38.8225V44.7762C392.318 44.7762 389.18 43.5359 386.698 41.5513C384.662 39.9229 382.106 37.5822 382.106 37.5822Z" fill="white"></path>
<path d="M382.106 50.6059L381.734 46.3887L386.078 46.6367L392.318 51.8462V57.7999C392.318 57.7999 389.18 56.5595 386.698 54.575C384.662 52.9466 382.106 50.6059 382.106 50.6059Z" fill="white"></path>
<path d="M304.669 40.3235H297.72L293.252 30.2642L299.966 30.1433L304.669 40.3235Z" fill="white"></path>
</svg>