<svg width="482" height="155" viewBox="0 0 482 155" fill="none" xmlns="http://www.w3.org/2000/svg">
<circle cx="94.6386" cy="77.2737" r="66.2076" transform="rotate(180 94.6386 77.2737)" stroke="black" stroke-width="4.27146"></circle>
<path d="M159.509 87.8167C159.509 95.3157 157.854 100.957 154.637 107.885C151.421 114.813 146.706 121.108 140.763 126.411C134.82 131.713 127.765 135.92 119.999 138.789C112.234 141.659 103.912 143.136 95.5069 143.136C87.1021 143.136 78.7795 141.659 71.0144 138.789C63.2493 135.92 56.1938 131.713 50.2506 126.411C44.3075 121.108 39.5932 114.813 36.3767 107.885C33.1603 100.957 31.5049 95.3157 31.5049 87.8167L95.5069 87.8167L159.509 87.8167Z" fill="black"></path>
<line x1="9.92285" y1="92.3245" x2="179.603" y2="92.3245" stroke="#00C1D4" stroke-width="12.8144"></line>
<path d="M458.371 125.823C452.074 125.823 447.656 122.559 447.377 116.969H451.343C451.622 120.302 453.605 122.559 458.267 122.559C462.268 122.559 463.485 120.823 463.485 118.566C463.485 115.407 461.05 114.955 456.527 113.809C452.631 112.768 448.351 111.518 448.351 106.795C448.351 102.49 451.691 100.024 457.049 100.024C462.72 100.024 466.408 102.906 466.791 107.906H462.824C462.407 104.92 460.702 103.288 457.084 103.288C453.953 103.288 452.352 104.434 452.352 106.587C452.352 109.365 454.962 109.955 458.162 110.754C462.963 111.969 467.486 113.115 467.486 118.358C467.486 122.629 464.599 125.823 458.371 125.823Z" fill="black"></path>
<path d="M428.766 125.337H424.939V100.51H428.766V125.337Z" fill="black"></path>
<path d="M398.618 125.337H394.757V103.809H386.72V100.51H406.655V103.809H398.618V125.337Z" fill="black"></path>
<path d="M352.385 125.337H348.558V100.51H352.942L364.492 119.608H364.562V100.51H368.424V125.337H364.04L352.455 106.24H352.385V125.337Z" fill="black"></path>
<path d="M317.302 125.823C309.856 125.823 305.09 120.372 305.09 112.906C305.09 105.441 309.856 100.024 317.302 100.024C324.747 100.024 329.513 105.441 329.513 112.906C329.513 120.372 324.747 125.823 317.302 125.823ZM317.302 122.525C323.181 122.525 325.512 118.011 325.512 112.906C325.512 107.802 323.181 103.323 317.302 103.323C311.422 103.323 309.091 107.802 309.091 112.906C309.091 118.011 311.422 122.525 317.302 122.525Z" fill="black"></path>
<path d="M272.029 125.337H268.202V100.51H278.57C284.067 100.51 287.024 103.08 287.024 107.663C287.024 110.823 285.111 113.115 282.362 113.74V113.809C288.138 114.886 286.015 124.678 287.372 125.094V125.337H283.267C282.154 124.296 284.519 115.615 278.431 115.615H272.029V125.337ZM272.029 112.316H277.735C281.249 112.316 283.162 110.788 283.162 107.941C283.162 105.267 281.632 103.809 277.805 103.809H272.029V112.316Z" fill="black"></path>
<rect x="232.564" y="100.567" width="17.2376" height="3.30846" fill="#00C1D4"></rect>
<rect x="236.21" y="111.155" width="14.2264" height="3.64641" transform="rotate(90 236.21 111.155)" fill="black"></rect>
<rect x="232.564" y="111.155" width="14.5856" height="3.30846" fill="black"></rect>
<path d="M458.013 36.5063H470.126V42.4703H457.925V48.4343H468.431C468.431 48.4343 468.431 55.0202 468.431 56.4681C468.431 57.916 462.981 64.5944 461.726 65.9339C461.451 66.2273 459.669 67.7805 459.704 67.9177C463.34 70.1278 468.35 72.4362 472.448 73.6768L469.345 79.5065C464.565 77.6375 459.387 74.73 455.098 71.9776C450.78 74.8671 441.278 79.5065 441.278 79.5065L438.569 73.6768C438.569 73.6768 447.295 70.0335 450.651 67.7614C449.622 66.929 448.549 65.9531 447.662 64.9803C446.842 64.0808 442.319 56.8604 442.319 56.8604L448.228 55.8239C450.049 58.9526 452.323 61.8357 455.069 64.1607C456.301 64.0522 462.221 56.095 462.45 54.3217C460.524 54.3217 441.278 54.5224 441.278 54.3217V48.4375H451.783V42.4703H440.796V36.5063H451.786V29.1869L458.013 29.1869V36.5063Z" fill="black"></path>
<path d="M341.229 44.1381V50.1109H332.664V63.0665H336.542V60.0431H342.037V68.8799H326.435V50.1109H320.924C320.924 50.1109 320.951 51.7224 320.676 55.1953C320.401 58.6683 318.78 62.5718 316.208 65.6143C315.597 66.3383 312.486 69.3354 311.245 69.9556L306.901 65.8624C310.996 63.8806 313.18 58.697 313.851 56.4357C314.2 55.255 314.843 52.2185 314.476 50.1109H307.607V44.1381H341.229Z" fill="black"></path>
<path d="M439.171 38.254V44.1382H434.164L434.161 52.7148L439.494 50.8963V57.1801L434.161 58.6909V79.3083H421.718V73.2646H427.86V60.5216L421.816 62.7617L420.421 56.7901L427.86 54.2387V44.1382H421.233V38.254H427.86V29.4292H434.164V38.254H439.171Z" fill="black"></path>
<path d="M293.448 44.1562L304.901 44.338C304.836 49.8198 304.96 68.5703 304.96 68.5703C304.96 68.5703 309.245 72.2405 309.53 72.2405H344.197V78.3899H307.398L301.661 73.698L295.146 79.146L292.63 73.6859C292.63 73.6859 293.801 72.9077 294.334 72.4644C294.917 71.9796 298.62 68.5703 298.62 68.5703V49.881H293.448V44.1562Z" fill="black"></path>
<path d="M255.086 50.5925V56.2287H261.147V61.6377H255.086V69.5121L261.228 67.9238V73.7283L249.108 78.1129V61.6377H243.451C243.451 61.6377 243.451 56.7929 243.451 56.2287H248.947V50.5957H244.583V44.9386H260.904V50.5957L255.086 50.5925Z" fill="black"></path>
<path d="M279.655 50.1849H275.13V64.4203V78.6557H264.139C264.137 78.6557 264.139 73.1129 264.139 72.612H268.987V50.1849C268.416 50.1982 263.169 50.1849 263.169 50.1849V44.4601H279.655L279.651 50.1849H279.655Z" fill="black"></path>
<path d="M234.563 78.9748V57.1855L230.122 60.8436L227.603 55.8428C228.903 54.953 230.106 53.8144 231.174 52.6535C232.991 50.6762 235.107 47.9812 236.633 45.7806C237.258 44.8844 238.383 43.041 238.383 43.041L243.449 45.1486C243.449 45.1486 240.75 49.8882 240.444 50.3254C240.137 50.7625 239.26 51.8465 238.921 52.3427C238.921 52.3427 239.158 52.3582 239.26 52.3442C239.55 52.3442 240.053 52.3442 240.682 52.3442C240.682 62.7503 240.688 78.9748 240.688 78.9748L234.557 78.9684L234.563 78.9748Z" fill="black"></path>
<path d="M337.678 31.735V37.4598H310.602L310.602 31.735H337.678Z" fill="black"></path>
<path d="M252.987 34.7551H261.228C261.275 35.1932 261.228 39.2297 261.228 40.346C257.647 40.346 254.064 40.3109 250.483 40.3109C250.138 40.8688 248.575 43.6601 248.327 43.6628H242.494C243.115 42.2957 243.67 41.4466 244.231 40.3811C246.107 36.8122 247.799 33.1318 248.934 29.2632L254.678 29.3493C254.817 29.3493 254.772 29.3429 255.095 29.3429C255.095 29.8213 253.19 34.0886 252.98 34.7583L252.987 34.7551Z" fill="black"></path>
<path d="M232.244 37.0865C233.858 35.4695 235.996 32.9883 237.222 31.0874C237.455 30.7239 238.202 29.1701 238.438 29.024C241.187 29.5024 242.836 29.9797 243.691 30.1466C243.878 30.1849 243.992 30.2104 244.102 30.3826C241.174 36.5985 236.274 42.014 230.443 45.7231L227.958 40.8977C229.323 39.571 230.905 38.4292 232.247 37.0833L232.244 37.0865Z" fill="black"></path>
<path d="M278.523 32.054V37.6225H263.816V32.054C263.816 32.054 277.136 32.0508 278.523 32.0508V32.054Z" fill="black"></path>
<path d="M372.001 43.8224C372.553 43.8077 379.113 43.8224 379.113 43.8224V49.6139H371.681L380.243 58.0483L376.769 62.2654L372.001 57.4281V79.6304H365.972L365.858 60.8405C365.858 60.8405 364.264 63.4697 363.148 65.0918C361.73 67.1523 359.286 70.201 359.286 70.201L355.835 65.8445C355.835 65.8445 363.038 55.3897 365.855 49.6139H358.261C358.261 49.6139 358.261 45.0014 358.261 43.8192H365.855V38.0944L358.895 39.4563L358.109 34.2896L378.382 28.776L378.88 34.7584L371.997 36.9016V43.8192L372.001 43.8224Z" fill="black"></path>
<path d="M401.9 57.8203L409.18 56.436V62.2656L401.9 63.754V79.5065H395.758V64.8208L379.11 68.0953V62.0176L395.758 58.9334V29.1901H401.657C401.673 29.1901 401.9 29.4133 401.9 29.4293V57.8203Z" fill="black"></path>
<path d="M382.477 37.5828L382.105 33.3656L386.448 33.6137L392.688 38.8231V44.7768C392.688 44.7768 389.551 43.5365 387.069 41.5519C385.032 39.9235 382.477 37.5828 382.477 37.5828Z" fill="black"></path>
<path d="M382.477 50.6065L382.105 46.3893L386.448 46.6374L392.688 51.8468V57.8005C392.688 57.8005 389.551 56.5602 387.069 54.5756C385.032 52.9472 382.477 50.6065 382.477 50.6065Z" fill="black"></path>
<path d="M305.04 40.3235H298.09L293.623 30.2642L300.336 30.1433L305.04 40.3235Z" fill="black"></path>
</svg>